<svg width="34" height="34" viewBox="0 0 34 34" fill="none" xmlns="http://www.w3.org/2000/svg">
<path d="M0 5C0 2.23858 2.23858 0 5 0H11C13.7614 0 16 2.23858 16 5V16H5C2.23858 16 0 13.7614 0 11V5Z" fill="#87C0F7"/>
<path d="M18 11C18 13.7614 20.2386 16 23 16H29C31.7614 16 34 13.7614 34 11V0H23C20.2386 0 18 2.23858 18 5V11Z" fill="#2467A8"/>
<path d="M34 23C34 20.2386 31.7614 18 29 18H23C20.2386 18 18 20.2386 18 23V34H29C31.7614 34 34 31.7614 34 29V23Z" fill="#0078EC"/>
<path d="M24.6667 28.9334L22 26.2667L22.9333 25.3334L24.6667 27.0667L29.0667 22.6667L30 23.6001L24.6667 28.9334Z" fill="white"/>
<path d="M26.2482 10.804C26.3442 10.804 26.4042 10.756 26.4042 10.648L26.4282 9.436C28.0002 9.172 28.8522 7.984 28.8522 6.52C28.8522 4.84 27.6882 3.82 26.0322 3.82C24.5442 3.82 23.4282 4.612 22.9602 5.932C22.9242 6.028 22.9722 6.1 23.0682 6.124L24.3282 6.448C24.4122 6.472 24.4842 6.436 24.5322 6.352C24.7962 5.764 25.2402 5.404 25.9122 5.404C26.7042 5.404 27.1722 5.86 27.1722 6.676C27.1722 7.552 26.6562 8.116 25.4682 8.116H25.0362C24.9402 8.116 24.8802 8.176 24.8802 8.272L24.9282 10.648C24.9282 10.756 24.9882 10.804 25.0842 10.804H26.2482ZM25.6602 13.348C26.2002 13.348 26.6202 12.976 26.6202 12.424C26.6202 11.872 26.2002 11.512 25.6602 11.512C25.1202 11.512 24.7002 11.872 24.7002 12.424C24.7002 12.976 25.1202 13.348 25.6602 13.348Z" fill="white"/>
<path d="M3.33333 27.3334C3.59704 27.3334 3.85483 27.2552 4.07409 27.1087C4.29336 26.9622 4.46426 26.754 4.56517 26.5103C4.66609 26.2667 4.69249 25.9986 4.64105 25.74C4.5896 25.4813 4.46261 25.2437 4.27614 25.0573C4.08967 24.8708 3.85209 24.7438 3.59345 24.6924C3.33481 24.6409 3.06672 24.6673 2.82309 24.7682C2.57945 24.8692 2.37122 25.0401 2.22471 25.2593C2.0782 25.4786 2 25.7364 2 26.0001" stroke="#39EB96" stroke-width="1.5" stroke-linecap="round"/>
<path d="M7.99996 27.3334C8.73634 27.3334 9.33329 26.7365 9.33329 26.0001C9.33329 25.2637 8.73634 24.6667 7.99996 24.6667C7.26358 24.6667 6.66663 25.2637 6.66663 26.0001C6.66663 26.7365 7.26358 27.3334 7.99996 27.3334Z" stroke="#39EB96" stroke-width="1.5"/>
<path d="M14 26.0001C14 26.2638 13.9218 26.5216 13.7753 26.7408C13.6288 26.9601 13.4206 27.131 13.177 27.2319C12.9333 27.3328 12.6652 27.3592 12.4066 27.3078C12.1479 27.2563 11.9104 27.1294 11.7239 26.9429C11.5374 26.7564 11.4104 26.5188 11.359 26.2602C11.3075 26.0016 11.334 25.7335 11.4349 25.4898C11.5358 25.2462 11.7067 25.038 11.9259 24.8915C12.1452 24.7449 12.403 24.6667 12.6667 24.6667" stroke="#39EB96" stroke-width="1.5" stroke-linecap="round"/>
<path d="M7.99996 8.00008C9.47329 8.00008 10.6666 6.80675 10.6666 5.33341C10.6666 3.86008 9.47329 2.66675 7.99996 2.66675C6.52663 2.66675 5.33329 3.86008 5.33329 5.33341C5.33329 6.80675 6.52663 8.00008 7.99996 8.00008ZM7.99996 9.33341C6.21996 9.33341 2.66663 10.2267 2.66663 12.0001V13.3334H13.3333V12.0001C13.3333 10.2267 9.77996 9.33341 7.99996 9.33341Z" fill="white"/>
</svg>
