<svg width="16" height="16" viewBox="0 0 16 16" fill="none" xmlns="http://www.w3.org/2000/svg">
<path d="M7.99337 1.33325C4.31337 1.33325 1.33337 4.31992 1.33337 7.99992C1.33337 11.6799 4.31337 14.6666 7.99337 14.6666C11.68 14.6666 14.6667 11.6799 14.6667 7.99992C14.6667 4.31992 11.68 1.33325 7.99337 1.33325ZM8.00004 13.3333C5.05337 13.3333 2.66671 10.9466 2.66671 7.99992C2.66671 5.05325 5.05337 2.66659 8.00004 2.66659C10.9467 2.66659 13.3334 5.05325 13.3334 7.99992C13.3334 10.9466 10.9467 13.3333 8.00004 13.3333Z" fill="white"/>
<path d="M8.33337 4.66675H7.33337V8.66675L10.8334 10.7667L11.3334 9.94675L8.33337 8.16675V4.66675Z" fill="white"/>
</svg>
