<svg width="24" height="24" viewBox="0 0 24 24" fill="none" xmlns="http://www.w3.org/2000/svg">
<path d="M14.8 16L15.425 13.9C16.325 13.6833 17.0623 13.2167 17.637 12.5C18.2117 11.7833 18.4993 10.95 18.5 10C18.5 8.9 18.1083 7.95833 17.325 7.175C16.5417 6.39167 15.6 6 14.5 6C13.55 6 12.7167 6.28767 12 6.863C11.2833 7.43833 10.8167 8.17567 10.6 9.075L8.5 9.7C8.58333 8.1 9.2 6.75 10.35 5.65C11.5 4.55 12.8833 4 14.5 4C16.1667 4 17.5833 4.58333 18.75 5.75C19.9167 6.91667 20.5 8.33333 20.5 10C20.5 11.6167 19.95 13 18.85 14.15C17.75 15.3 16.4 15.9167 14.8 16ZM5.975 20.5L4 18.525L8.275 14.25L4.5 13L14.5 10L11.5 20L10.25 16.225L5.975 20.5Z" fill="white"/>
</svg>
