<svg width="16" height="16" viewBox="0 0 16 16" fill="none" xmlns="http://www.w3.org/2000/svg">
<path d="M8.69488 1.7496L8.69484 1.74965L13.6933 6.46701C13.6936 6.46726 13.6939 6.4675 13.6941 6.46774C13.7983 6.5636 13.8815 6.68001 13.9384 6.80962C13.9955 6.93955 14.025 7.07993 14.025 7.22187V13C14.025 13.2718 13.917 13.5326 13.7248 13.7248C13.5326 13.917 13.2719 14.025 13 14.025H10C9.72816 14.025 9.46745 13.917 9.27523 13.7248C9.083 13.5326 8.97501 13.2718 8.97501 13V10.025H7.02501V13C7.02501 13.2718 6.91702 13.5326 6.72479 13.7248C6.53257 13.917 6.27186 14.025 6.00001 14.025H3.00001C2.72816 14.025 2.46745 13.917 2.27522 13.7248C2.083 13.5326 1.97501 13.2718 1.97501 13V7.22219V7.22187H2.12501L8.69488 1.7496ZM8.69488 1.7496L8.69154 1.74663M8.69488 1.7496L8.69154 1.74663M8.69154 1.74663L8.68673 1.74235C8.49853 1.57038 8.25279 1.475 7.99782 1.475C7.74286 1.475 7.49713 1.57037 7.30893 1.74234L7.30411 1.74663L7.30406 1.74658M8.69154 1.74663L7.30406 1.74658M7.30406 1.74658L7.30081 1.74965M7.30406 1.74658L7.30081 1.74965M7.30081 1.74965L2.30155 6.46771M7.30081 1.74965L2.30155 6.46771M2.30155 6.46771C2.30141 6.46783 2.30128 6.46795 2.30115 6.46808L2.30155 6.46771ZM3.02501 7.2327L7.9997 2.53556L12.9742 7.23259L12.975 7.23337V12.975H10.025V9.99999C10.025 9.72814 9.91702 9.46743 9.72479 9.27521C9.53257 9.08298 9.27186 8.97499 9.00001 8.97499H7.00001C6.72816 8.97499 6.46745 9.08298 6.27522 9.27521C6.083 9.46743 5.97501 9.72814 5.97501 9.99999V12.975H3.02501V7.2327Z" fill="white" stroke="white" stroke-width="0.3"/>
</svg>
