<svg width="16" height="16" viewBox="0 0 16 16" fill="black" xmlns="http://www.w3.org/2000/svg">
<path d="M6.00004 9.16683C4.44004 9.16683 1.33337 9.94683 1.33337 11.5002V12.6668H10.6667V11.5002C10.6667 9.94683 7.56004 9.16683 6.00004 9.16683ZM2.89337 11.3335C3.45337 10.9468 4.80671 10.5002 6.00004 10.5002C7.19337 10.5002 8.54671 10.9468 9.10671 11.3335H2.89337ZM6.00004 8.00016C7.28671 8.00016 8.33337 6.9535 8.33337 5.66683C8.33337 4.38016 7.28671 3.3335 6.00004 3.3335C4.71337 3.3335 3.66671 4.38016 3.66671 5.66683C3.66671 6.9535 4.71337 8.00016 6.00004 8.00016ZM6.00004 4.66683C6.55337 4.66683 7.00004 5.1135 7.00004 5.66683C7.00004 6.22016 6.55337 6.66683 6.00004 6.66683C5.44671 6.66683 5.00004 6.22016 5.00004 5.66683C5.00004 5.1135 5.44671 4.66683 6.00004 4.66683ZM10.6934 9.20683C11.4667 9.76683 12 10.5135 12 11.5002V12.6668H14.6667V11.5002C14.6667 10.1535 12.3334 9.38683 10.6934 9.20683ZM10 8.00016C11.2867 8.00016 12.3334 6.9535 12.3334 5.66683C12.3334 4.38016 11.2867 3.3335 10 3.3335C9.64004 3.3335 9.30671 3.42016 9.00004 3.56683C9.42004 4.16016 9.66671 4.88683 9.66671 5.66683C9.66671 6.44683 9.42004 7.1735 9.00004 7.76683C9.30671 7.9135 9.64004 8.00016 10 8.00016Z" fill="white"/>
</svg>
